<?xml version="1.0" standalone="no"?>
<!DOCTYPE svg PUBLIC "-//W3C//DTD SVG 20010904//EN"
 "http://www.w3.org/TR/2001/REC-SVG-20010904/DTD/svg10.dtd">
<svg version="1.0" xmlns="http://www.w3.org/2000/svg"
 width="1024.000000pt" height="1024.000000pt" viewBox="0 0 1024.000000 1024.000000"
 preserveAspectRatio="xMidYMid meet">
<metadata>
Created by potrace 1.16, written by Peter Selinger 2001-2019
</metadata>
<g transform="translate(0.000000,1024.000000) scale(0.100000,-0.100000)"
fill="#000000" stroke="none">
<path d="M5066 8656 c-27 -8 -61 -26 -76 -42 -17 -17 -74 -126 -135 -259 -59
-126 -140 -299 -181 -384 -97 -200 -109 -236 -100 -286 10 -49 69 -109 123
-124 24 -7 186 -11 421 -11 364 0 386 1 431 20 63 27 101 85 101 152 0 50 -31
126 -188 463 -199 428 -214 451 -297 474 -47 13 -37 13 -99 -3z m161 -296 c99
-199 283 -610 283 -631 0 -38 -14 -39 -401 -39 -428 0 -415 -2 -381 72 121
265 346 736 359 750 36 40 54 22 140 -152z"/>
<path d="M2665 7685 c-66 -36 -105 -93 -105 -154 0 -57 254 -857 291 -918 23
-37 91 -73 137 -73 56 0 100 27 179 107 392 401 541 562 553 597 24 73 -8 150
-78 185 -56 28 -210 77 -712 227 -142 43 -223 52 -265 29z m275 -171 c417
-126 640 -202 647 -220 2 -7 1 -19 -4 -28 -13 -23 -582 -596 -592 -596 -17 0
-39 29 -54 72 -39 108 -247 774 -247 790 0 13 32 38 48 38 10 0 100 -25 202
-56z"/>
<path d="M7265 7646 c-670 -197 -675 -199 -720 -247 -37 -38 -45 -118 -18
-166 10 -18 162 -177 338 -353 268 -269 326 -322 360 -331 71 -19 134 3 176
62 15 20 118 359 242 800 33 117 32 153 -6 210 -28 43 -99 79 -152 78 -22 0
-121 -24 -220 -53z m256 -92 c16 -19 23 10 -126 -503 -67 -227 -115 -375 -123
-379 -9 -3 -126 108 -318 299 -315 314 -333 337 -281 359 12 5 166 52 342 104
176 52 349 104 385 115 82 24 104 25 121 5z"/>
<path d="M4830 7329 c-118 -14 -224 -37 -370 -80 -373 -110 -663 -283 -941
-559 -188 -187 -292 -333 -414 -582 -106 -214 -178 -468 -206 -723 -17 -157
-6 -476 21 -632 128 -736 592 -1360 1232 -1657 175 -81 453 -164 621 -187 132
-17 469 -23 577 -10 550 69 970 268 1325 625 240 242 420 523 534 833 94 258
131 480 131 791 0 217 -19 369 -69 564 -101 385 -323 769 -591 1022 -324 304
-744 509 -1196 582 -116 19 -537 28 -654 13z m572 -155 c220 -30 417 -89 623
-188 439 -211 735 -504 950 -941 85 -172 133 -309 169 -480 133 -642 -39
-1305 -473 -1815 -63 -74 -90 -101 -208 -211 -334 -309 -774 -479 -1283 -496
-366 -12 -680 55 -992 212 -287 144 -514 335 -717 602 -212 281 -359 642 -407
1002 -18 136 -18 426 0 561 62 463 289 908 619 1214 348 322 743 502 1207 549
104 11 409 6 512 -9z"/>
<path d="M5430 6597 c-14 -7 -53 -51 -88 -97 -34 -47 -93 -123 -130 -170 -144
-183 -387 -488 -611 -769 -130 -161 -258 -321 -284 -355 -27 -33 -63 -78 -80
-100 -41 -49 -64 -93 -72 -136 -9 -53 28 -118 85 -150 44 -25 48 -25 340 -30
287 -5 295 -6 294 -25 -1 -11 -20 -87 -42 -170 -37 -138 -63 -235 -173 -662
-21 -84 -39 -171 -39 -193 0 -78 85 -131 160 -100 21 9 72 65 153 168 131 165
416 530 550 702 44 58 124 159 177 226 52 66 129 165 170 219 41 54 104 135
139 179 35 45 75 104 88 133 21 45 23 57 14 91 -6 21 -19 46 -28 54 -48 41
-60 43 -373 48 l-305 5 3 30 c3 25 59 289 178 844 33 156 32 204 -5 242 -33
32 -77 38 -121 16z m-15 -254 c-3 -10 -26 -111 -51 -225 -24 -115 -64 -303
-89 -418 -49 -228 -54 -292 -29 -329 34 -47 62 -51 384 -51 241 0 300 -3 300
-13 0 -12 -227 -308 -605 -787 -88 -113 -241 -308 -340 -435 -98 -126 -183
-236 -190 -243 -6 -7 10 69 37 170 109 411 198 777 198 816 0 60 -32 93 -101
103 -30 4 -179 8 -332 8 -306 1 -309 2 -268 60 12 16 164 207 339 424 174 217
413 516 531 666 117 149 216 271 218 271 3 0 2 -8 -2 -17z"/>
<path d="M2430 5656 c-19 -7 -204 -97 -410 -200 -268 -133 -384 -196 -407
-220 -37 -40 -57 -105 -48 -153 14 -75 50 -99 468 -308 249 -125 407 -199 433
-202 91 -12 174 49 194 141 8 34 10 182 8 453 -3 387 -4 403 -24 429 -35 48
-70 67 -126 70 -29 2 -69 -2 -88 -10z m88 -128 c16 -16 17 -763 2 -803 -9 -23
-14 -26 -36 -21 -48 12 -768 381 -779 399 -7 12 -7 22 1 35 10 16 765 400 790
401 5 1 15 -4 22 -11z"/>
<path d="M7665 5657 c-39 -19 -64 -47 -81 -94 -16 -47 -20 -781 -3 -853 21
-91 101 -149 189 -137 24 3 200 84 433 200 421 208 445 224 467 307 15 56 -3
116 -46 156 -20 19 -195 113 -429 230 -424 211 -458 224 -530 191z m486 -319
c354 -178 384 -195 387 -220 3 -27 -8 -33 -392 -225 -326 -163 -399 -196 -414
-187 -16 10 -17 43 -20 405 -1 217 0 400 3 406 2 7 15 13 28 13 14 0 197 -87
408 -192z"/>
<path d="M2933 3689 c-70 -21 -96 -60 -156 -244 -141 -431 -217 -687 -217
-730 0 -117 93 -196 210 -181 38 5 645 203 828 270 64 23 98 51 116 96 23 58
20 90 -13 141 -28 44 -556 572 -621 621 -40 30 -100 41 -147 27z m356 -421
c163 -161 297 -300 299 -309 2 -10 -8 -21 -25 -28 -59 -24 -782 -260 -817
-266 -32 -6 -37 -4 -47 19 -13 27 8 104 147 536 23 74 55 175 70 223 26 85 44
117 66 117 6 0 144 -132 307 -292z"/>
<path d="M7154 3661 c-55 -40 -599 -592 -624 -633 -26 -43 -26 -110 0 -153 30
-48 90 -75 400 -178 442 -148 487 -160 561 -161 57 -1 70 3 102 27 44 34 77
93 77 140 0 46 -246 839 -281 910 -27 53 -71 77 -140 77 -46 0 -63 -5 -95 -29z
m115 -115 c7 -8 45 -126 87 -262 41 -137 98 -325 126 -418 57 -188 56 -203 -5
-199 -33 2 -763 240 -806 263 -12 6 -21 18 -21 26 0 18 579 604 596 604 6 0
17 -6 23 -14z"/>
<path d="M4695 2651 c-68 -17 -110 -62 -121 -130 -8 -49 -11 -42 134 -351 266
-568 263 -563 342 -597 48 -20 120 -12 168 19 48 32 64 64 268 508 144 314
158 350 159 402 0 65 -20 100 -76 133 -32 19 -54 20 -439 22 -223 1 -419 -2
-435 -6z m799 -137 c9 -3 16 -13 16 -21 0 -16 -248 -556 -322 -702 -52 -103
-68 -116 -102 -81 -14 14 -78 140 -144 280 -66 140 -142 300 -169 356 -62 125
-68 141 -53 159 11 13 72 15 385 15 206 0 380 -3 389 -6z"/>
</g>
</svg>
